<?xml version="1.0" encoding="UTF-8" standalone="no"?>
<!-- Created with Inkscape (http://www.inkscape.org/) -->

<svg
   version="1.1"
   id="svg1"
   width="2560"
   height="1280"
   viewBox="0 0 2560 1280"
   sodipodi:docname="test2.svg"
   xml:space="preserve"
   inkscape:export-filename="test2.png"
   inkscape:export-xdpi="90"
   inkscape:export-ydpi="90"
   inkscape:version="1.4.2 (ebf0e940d0, 2025-05-08)"
   xmlns:inkscape="http://www.inkscape.org/namespaces/inkscape"
   xmlns:sodipodi="http://sodipodi.sourceforge.net/DTD/sodipodi-0.dtd"
   xmlns="http://www.w3.org/2000/svg"
   xmlns:svg="http://www.w3.org/2000/svg"><defs
     id="defs1" /><sodipodi:namedview
     id="namedview1"
     pagecolor="#ffffff"
     bordercolor="#000000"
     borderopacity="0.25"
     inkscape:showpageshadow="2"
     inkscape:pageopacity="0.0"
     inkscape:pagecheckerboard="0"
     inkscape:deskcolor="#d1d1d1"
     showgrid="false"
     showguides="false"
     inkscape:zoom="0.82734375"
     inkscape:cx="1499.9811"
     inkscape:cy="639.39566"
     inkscape:window-width="2954"
     inkscape:window-height="1633"
     inkscape:window-x="0"
     inkscape:window-y="0"
     inkscape:window-maximized="1"
     inkscape:current-layer="g1" /><g
     inkscape:groupmode="layer"
     inkscape:label="Image"
     id="g1"><path
       style="fill:#31a031;fill-opacity:1"
       d="m 268.36672,215.37711 c 67.78565,19.02965 106.73064,165.01679 179.48093,229.05185 72.75029,64.03506 216.45504,91.5207 249.56396,148.71277 33.10892,57.19207 -13.08696,69.64775 1.70934,105.97922 14.7963,36.33147 76.46587,34.34746 88.88579,94.01382 12.41992,59.66636 -102.85742,169.72709 -80.33908,222.21443 22.51834,52.4873 62.38563,56.0468 97.4325,42.7336 35.04687,-13.3132 14.67836,-60.2473 49.57093,-107.68855 34.89257,-47.44125 86.70487,-76.18558 121.17066,-137.92048 34.46585,-61.7349 99.96885,-93.98487 66.82135,-148.84899 -33.1475,-54.86412 -119.03055,-55.52189 -165.77057,-87.12613 -46.74002,-31.60424 -113.2445,-30.55492 -137.12959,-4.44057 -23.8851,26.11435 -56.796,-31.44011 -75.42593,-41.7988 -18.62994,-10.35868 -0.79197,-33.20462 -12.62436,-39.09768 -11.83239,-5.89306 -18.05077,15.96987 -27.80585,19.74486 -9.75508,3.77498 -33.89604,-28.72744 -30.46079,-42.85527 3.26156,-13.41353 45.40379,-45.91298 69.21355,-43.00536 23.80975,2.90762 17.70126,46.86505 43.00231,38.58589 25.30105,-8.27916 -2.6175,-26.11299 11.83451,-49.11624 14.452,-23.00326 59.69982,-101.55461 104.69721,-83.33044 44.99739,18.22417 28.13525,-18.60218 12.82006,-38.88753 -15.31519,-20.28535 45.46583,-1.80347 48.79516,-17.71547 3.32932,-15.912 -42.52925,-10.76423 -51.97571,-45.09081 -9.44646,-34.32659 -25.50997,16.41709 -40.30733,-10.69631 -14.79735,-27.1134 -53.55298,-31.36082 -66.50633,-16.4409 -12.95335,14.91991 32.10427,53.81418 -16.54039,64.36831 -48.64465,10.55412 -100.58001,-40.91596 -84.8932,-75.24484 7.48126,-16.37195 47.12048,-18.91997 78.44484,-17.04398 34.35689,2.0576 90.37896,22.92824 121.52775,7.5682 31.14879,-15.36004 -117.25204,-59.37829 -101.45249,-78.64725 15.79956,-19.268968 107.19659,-13.272958 141.11185,5.18877 33.91526,18.46173 47.33605,103.71614 95.29583,103.4152 47.95977,-0.30094 41.09718,-22.6402 77.77507,-46.15224 36.6779,-23.51204 58.7442,-11.98966 86.4632,-36.03024 27.719,-24.04058 54.9044,-42.965624 45.5835,-72.940323 -9.3209,-29.974699 -379.90463,-12.918733 -522.20406,-2.991349 -79.31379,5.533251 -175.79409,31.207279 -215.15083,40.61588 -39.35674,9.408602 7.69737,24.374202 -59.7422,35.624702 -67.43957,11.25049 -270.38712,-10.43091 -278.933833,-5.30288 -8.546712,5.12803 -61.837579,59.92197 -49.570923,94.01382 12.266656,34.09185 90.595126,42.73355 102.560526,42.73355 11.96539,0 55.28699,-65.18189 123.07264,-46.15224 z"
       id="path1"
       sodipodi:nodetypes="zzzzzzzzzzzzzzzszzzzzzzzzzsszzzzzzzszzzzzz" /><path
       style="fill:#31a031;fill-opacity:1"
       d="m 1194.8302,399.98607 c -56.8649,37.29155 -69.4041,67.94803 -64.955,116.23527 4.4491,48.28724 59.6899,109.01938 100.8512,121.36329 41.1613,12.34391 65.9293,-29.50638 99.3492,-12.1372 33.4199,17.36918 20.8675,65.98375 22.0141,131.79115 1.1465,65.8074 8.1255,138.61021 73.5017,153.8408 65.3762,15.23059 107.5688,-93.70334 147.0034,-150.42211 39.4346,-56.71877 60.3182,-137.10614 87.1764,-184.60896 26.8582,-47.50282 23.399,-101.46955 68.3737,-102.56053 44.9747,-1.09098 60.09,92.95131 87.1765,117.94461 27.0865,24.9933 39.1893,52.08737 63.2456,39.31487 24.0563,-12.7725 -8.4503,-67.49237 3.4187,-88.88579 11.869,-21.39342 18.8489,-38.09673 47.8616,-32.4775 29.0127,5.61923 30.5706,200.95419 82.9817,171.05874 52.4111,-29.89545 -35.4013,-97.28476 -22.0349,-111.16366 13.3664,-13.8789 45.2211,28.79531 63.1094,-25.88004 17.8883,-54.67535 49.7608,-54.16647 72.5182,-52.81781 22.7574,1.34866 8.2504,103.87597 39.0897,100.2499 30.8393,-3.62606 0.2764,-150.95308 36.7968,-215.54028 36.5204,-64.58721 91.3106,-92.88613 166.84,-130.85489 19.0116,-9.55717 7.4369,26.77243 27.0694,26.14677 25.7627,-0.82102 48.7403,-43.16179 76.0952,-49.63528 34.616,-8.19181 81.9132,18.39781 96.8285,1.26706 35.684,-40.98436 51.3909,-72.82508 -3.4187,-124.781976 -54.8096,-51.956899 -217.414,18.944326 -328.1937,8.546706 -110.7797,-10.397623 -238.9941,-81.653137 -331.6124,-71.792367 -92.6183,9.86077 -109.663,72.298277 -199.993,90.595137 -90.33,18.29686 -227.6361,-21.43978 -294.4342,13.88841 -66.7981,35.32818 -105.2476,39.75213 -97.8598,71.15136 7.3878,31.39923 37.3065,11.19231 31.1954,39.7422 -6.111,28.5499 -87.5588,18.89876 -78.2024,73.50172 1.2568,7.33475 -99.8399,13.85698 -29.9147,52.99249 69.9253,39.13551 41.5475,-43.50532 89.9144,-48.7376 48.3669,-5.23229 45.803,39.29729 73.7011,40.1524 28.9286,0.8867 69.6897,-18.68714 68.0016,5.16363 -5.6782,80.22651 -216.6298,-9.94207 -273.4947,27.34948 z"
       id="path2"
       sodipodi:nodetypes="zzzzzzzzzzzzzzzzzzzsssszzzzzzzszzssz" /><path
       style="fill:#31a031;fill-opacity:1"
       d="m 2099.2859,764.93062 c -22.088,21.0063 -35.6194,76.82893 -27.3495,104.26987 8.2699,27.44094 23.5202,37.79001 47.8616,42.73356 24.3414,4.94355 42.9809,-33.05934 80.3391,-27.34948 37.3582,5.70986 80.7301,86.69779 114.5259,83.75777 33.7958,-2.94002 29.2577,-18.01287 42.7335,-44.4429 13.4758,-26.43003 31.0618,-81.67708 20.5121,-114.52592 -10.5497,-32.84884 -49.7116,-43.20096 -64.955,-63.24566 -15.2434,-20.0447 -9.8778,-18.84121 -24.3581,-19.2301 -14.4803,-0.38889 -19.3911,17.97055 -35.4688,17.52075 -16.0777,-0.4498 0.5965,-27.48742 -17.0935,-32.4775 -17.69,-4.99008 -40.1556,28.6131 -63.2456,37.60553 -23.09,8.99243 -51.4137,-5.62222 -73.5017,15.38408 z"
       id="path3"
       sodipodi:nodetypes="zzzzzzzzzzzzz" /><path
       style="fill:#31a031;fill-opacity:1"
       d="m 2506.9325,881.77468 c -3.5895,4.469 10.3977,16.66585 8.529,37.01897 -1.8687,20.35312 -71.7173,28.24144 -71.1022,50.40336 0.6151,22.16192 32.4775,39.31489 32.4775,29.05882 0,-10.25606 80.1356,-59.16076 71.425,-90.88841 -8.7106,-31.72765 -37.7397,-30.06173 -41.3293,-25.59274 z"
       id="path4"
       sodipodi:nodetypes="zzzzzz" /><path
       style="fill:#31a031;fill-opacity:1"
       d="m 1109.7904,174.78024 c -7.1977,17.85201 47.6479,28.41781 43.3746,16.02508 -4.2733,-12.39274 30.9341,-2.96134 29.6998,-15.81141 -1.2343,-12.85008 -65.8767,-18.06567 -73.0744,-0.21367 z"
       id="path5"
       sodipodi:nodetypes="zzzz" /><path
       style="fill:#31a031;fill-opacity:1"
       d="m 1230.299,227.76984 c -1.8147,9.63555 24.2505,14.53169 25.2128,26.06747 0.9623,11.53578 -26.7319,14.58143 -18.8027,27.34948 7.9292,12.76805 45.3126,4.1023 53.2033,-15.38408 7.8907,-19.48638 -24.2586,-43.78075 -39.1013,-47.43425 -14.8427,-3.6535 -18.6974,-0.23417 -20.5121,9.40138 z"
       id="path6"
       sodipodi:nodetypes="zzzzzz" /><path
       style="fill:#31a031;fill-opacity:1"
       d="m 1216.6243,244.86327 c -8.662,2.51224 -19.4526,19.1997 -11.9654,26.92214 7.4872,7.72244 31.4802,-3.34285 32.4775,-13.24741 0.9973,-9.90456 -11.8501,-16.18697 -20.5121,-13.67473 z"
       id="path7"
       sodipodi:nodetypes="zzzz" /><path
       style="fill:#31a031;fill-opacity:1"
       d="m 2053.7746,632.4566 c -3.9098,16.68337 4.226,19.42299 12.3928,26.06747 8.1668,6.64448 19.2807,14.57791 33.3321,8.11938 14.0514,-6.45853 26.4918,-37.19619 26.4948,-52.13494 0,-14.93875 3.0032,-24.00204 -14.102,-27.77681 -17.1052,-3.77477 -54.2079,29.04153 -58.1177,45.7249 z"
       id="path8"
       sodipodi:nodetypes="zzzzzz" /><path
       style="fill:#31a031;fill-opacity:1"
       d="m 1600.6044,754.52313 c -16.3848,5.70302 0.7922,27.73859 -12.3891,44.41927 -13.1813,16.68068 25.7336,35.54174 30.5194,12.08687 4.7858,-23.45488 28.5183,-71.24078 18.4325,-83.39943 -10.0859,-12.15865 -20.178,21.19028 -36.5628,26.89329 z"
       id="path9"
       sodipodi:nodetypes="zzzzz" /><path
       style="fill:#31a031;fill-opacity:1"
       d="m 2209.5384,646.13134 c -3.4187,7.79888 45.9299,23.93894 48.5026,37.81919 2.5727,13.88025 -15.7388,13.26794 -11.9654,19.87111 3.7734,6.60317 21.3668,-0.21367 22.4351,-0.21367 1.0684,0 15.5601,10.97065 23.7171,10.25605 8.157,-0.71459 7.6007,-11.62725 19.4438,-12.82006 11.8431,-1.19281 45.2621,30.23242 41.0242,5.98269 -4.2379,-24.24972 -78.8443,-63.13151 -107.2612,-69.01469 -28.4169,-5.88318 -32.4775,0.32051 -35.8962,8.11938 z"
       id="path10"
       sodipodi:nodetypes="zzzzzzzzz" /><path
       style="fill:#31a031;fill-opacity:1"
       d="m 2205.2502,409.74504 c 12.3129,12.3883 50.9122,-4.6637 66.4778,-25.38243 15.5656,-20.71873 56.5412,-45.768 25.9868,-61.03872 -16.2748,-8.13396 -10.4726,24.16567 -38.707,45.56795 -28.2344,21.40228 -59.512,35.06354 -53.7576,40.8532 z"
       id="path11"
       sodipodi:nodetypes="szszs" /><path
       style="fill:#ffffff;fill-opacity:1"
       d="m -1.8130312,1200 -1.3919854,81.0316 2567.5873166,3.5958 -4.1509,-84.6274 c 0,0 -113.5722,29.6094 -125.3305,-4.0038 -11.7583,-33.6132 82.372,-19.3747 56.0143,-43.5431 -26.3577,-24.1683 -221.7847,-43.4853 -336.9483,-45.7101 -115.1636,-2.2248 -279.928,12.1057 -323.3757,25.4609 -43.4476,13.3552 -128.3085,-19.3829 -163.162,-20.5397 -34.8534,-1.1569 -41.7047,9.335 -115.3465,19.0656 -73.6418,9.7306 -249.6525,-8.9722 -336.3131,4.7007 -86.6606,13.6729 -119.341,49.8448 -181.6176,55.981 -62.27655,6.1362 -161.52432,23.0077 -184.44473,-18.9847 -22.92041,-41.9924 80.18809,-49.8722 45.93012,-90.6515 -34.25797,-40.7793 -78.99168,39.2314 -208.48184,63.484 -129.49016,24.2526 -496.41458,39.482 -570.92028,42.7335 C 41.729565,1191.2443 -1.8130312,1200 -1.8130312,1200 Z"
       id="path12"
       sodipodi:nodetypes="cccczzzzzzzzzzzzc" /><path
       style="fill:#31a031;fill-opacity:1"
       d="m 678.678,490.7271 c 3.00959,8.36976 22.70413,-0.36514 32.33239,2.41738 9.62826,2.78252 16.99804,11.93755 24.47592,12.99339 7.47788,1.05584 15.77461,9.98422 17.22379,-3.62607 1.44918,-13.61029 -44.89103,-28.73632 -58.92351,-26.28895 -14.03248,2.44737 -18.11818,6.13449 -15.10859,14.50425 z"
       id="path13"
       sodipodi:nodetypes="zzzzzz" /><path
       style="fill:#31a031;fill-opacity:1"
       d="m 720.67989,465.34467 c -4.16227,4.12713 -0.73044,10.36098 3.92823,12.69121 4.65867,2.33023 17.03578,0.59766 16.92163,-6.04343 -0.11415,-6.64109 -16.68759,-10.77491 -20.84986,-6.64778 z"
       id="path14"
       sodipodi:nodetypes="zzzz" /><path
       style="fill:#31a031;fill-opacity:1"
       d="m 759.66006,503.72049 c 1.35977,0.30217 5.9637,15.50708 13.59773,17.52597 7.63403,2.01889 24.22963,0.76778 23.26723,-9.6695 -0.9624,-10.43728 -38.22473,-8.15865 -36.86496,-7.85647 z"
       id="path15"
       sodipodi:nodetypes="zzzz" /><path
       style="fill:#31a031;fill-opacity:1"
       d="m 719.77337,516.10954 c -0.41161,6.30292 11.48253,4.21358 15.41077,3.32389 3.92824,-0.88969 8.4878,-0.39218 6.64778,-5.13692 -1.84002,-4.74474 -21.64694,-4.48989 -22.05855,1.81303 z"
       id="path16"
       sodipodi:nodetypes="zzzz" /><path
       style="fill:#31a031;fill-opacity:1"
       d="m 880.671,278.13846 c -7.33112,-0.44251 -23.49328,14.42751 -19.03683,25.83569 4.45644,11.40819 32.21338,13.41158 40.64211,7.85647 8.42873,-5.55511 7.60574,-13.17975 4.07932,-18.73465 -3.52642,-5.5549 -15.4794,-1.31654 -19.79225,-4.53258 -4.31285,-3.21604 1.43876,-9.98242 -5.89235,-10.42493 z"
       id="path17"
       sodipodi:nodetypes="zzzzzz" /></g></svg>
